<?xml version="1.0" encoding="UTF-8"?>
<svg version="1.1" xmlns="http://www.w3.org/2000/svg" width="388" height="388">
<path d="M0 0 C128.04 0 256.08 0 388 0 C388 128.04 388 256.08 388 388 C259.96 388 131.92 388 0 388 C0 259.96 0 131.92 0 0 Z " fill="#FDFDFD" transform="translate(0,0)"/>
<path d="M0 0 C0.39754564 23.79992462 0.6971048 47.59935014 0.88080692 71.4019289 C0.96838118 82.45471141 1.08771065 93.5054284 1.2824707 104.55688477 C1.4521938 114.19225829 1.56165165 123.82613602 1.59950441 133.46296281 C1.62162694 138.56416612 1.67339141 143.66109154 1.79741096 148.76091957 C1.91336175 153.56817766 1.94830285 158.36942626 1.92283058 163.17794991 C1.9274847 164.93618801 1.96101398 166.69463939 2.02649307 168.45166397 C2.48271463 181.3320949 2.48271463 181.3320949 -1.63717961 185.75929999 C-5.69817469 189.06716658 -10.14115121 191.53162508 -14.81140912 193.86914861 C-18.23680553 195.63906108 -21.44991631 197.72441141 -24.6875 199.8125 C-25.98936152 200.62145083 -27.29139284 201.43012861 -28.59375 202.23828125 C-31.98665455 204.35409018 -35.35522095 206.50577942 -38.71875 208.66796875 C-39.70657471 209.30178467 -40.69439941 209.93560059 -41.7121582 210.58862305 C-43.66086828 211.84048579 -45.60740901 213.09573342 -47.55151367 214.35473633 C-48.44588135 214.92861084 -49.34024902 215.50248535 -50.26171875 216.09375 C-51.05537842 216.60615234 -51.84903809 217.11855469 -52.66674805 217.64648438 C-55.04949064 219.02870944 -57.436539 220.00321388 -60 221 C-60.49146694 197.3826598 -60.86130918 173.76608997 -61.08805561 150.14465904 C-61.19615952 139.17542562 -61.34340434 128.20937621 -61.58422852 117.2421875 C-61.79413963 107.67819285 -61.92915478 98.11650392 -61.97585839 88.55026972 C-62.00314924 83.48763237 -62.06680523 78.43158787 -62.22033119 73.37107468 C-63.11541175 42.68659896 -63.11541175 42.68659896 -58.00374985 34.99698639 C-53.24862207 30.29832998 -47.93804841 27.59067099 -41.76233482 25.18486404 C-37.04777041 23.16261902 -32.96365484 20.20636483 -28.75 17.3125 C-27.11506919 16.24784387 -25.47743479 15.18731621 -23.8359375 14.1328125 C-20.56157952 12.01566798 -17.29699743 9.88451482 -14.0390625 7.7421875 C-13.25305664 7.22744873 -12.46705078 6.71270996 -11.65722656 6.18237305 C-10.16990452 5.20816756 -8.68476173 4.23062431 -7.20214844 3.24926758 C-2.22542987 0 -2.22542987 0 0 0 Z " fill="#020202" transform="translate(193,59)"/>
<path d="M0 0 C8.50204244 4.25102122 16.83831107 8.47318505 25.0625 13.1875 C26.02623535 13.73631836 26.9899707 14.28513672 27.98291016 14.85058594 C29.98219333 15.98977677 31.98056617 17.13056671 33.97802734 18.27294922 C37.02011905 20.01149799 40.06620354 21.74286346 43.11328125 23.47265625 C45.03398085 24.56488142 46.95455866 25.6573208 48.875 26.75 C49.77871338 27.26328857 50.68242676 27.77657715 51.61352539 28.30541992 C52.43973389 28.7769751 53.26594238 29.24853027 54.1171875 29.734375 C54.84534668 30.14913086 55.57350586 30.56388672 56.32373047 30.99121094 C58 32 58 32 59 33 C59.09575309 34.50551174 59.12188187 36.0155103 59.12025452 37.52406311 C59.12231651 38.99018791 59.12231651 38.99018791 59.12442017 40.4859314 C59.11902725 42.10756699 59.11902725 42.10756699 59.11352539 43.76196289 C59.11367142 44.8935231 59.11381744 46.02508331 59.1139679 47.19093323 C59.11326819 50.95152671 59.10547311 54.71207137 59.09765625 58.47265625 C59.09579227 61.07197543 59.09436828 63.67129497 59.09336853 66.27061462 C59.08993341 72.42588577 59.08204256 78.5811366 59.07201904 84.73640007 C59.05976279 92.42908103 59.0542752 100.12176484 59.04882812 107.81445312 C59.03907712 121.54298253 59.01904682 135.27147335 59 149 C22.37 149 -14.26 149 -52 149 C-48.51462708 145.51462708 -46.15391307 143.7916381 -41.9375 141.5 C-35.97456347 138.19464187 -30.18875815 134.66051746 -24.4375 131 C-23.63248047 130.48856445 -22.82746094 129.97712891 -21.99804688 129.45019531 C-20.41378709 128.44314147 -18.82979605 127.43566471 -17.24609375 126.42773438 C-13.98498686 124.35480469 -10.71718423 122.29340526 -7.4375 120.25 C-6.42558594 119.61578125 -5.41367188 118.9815625 -4.37109375 118.328125 C-2 117 -2 117 0 117 C0 78.39 0 39.78 0 0 Z " fill="#000000" transform="translate(199,131)"/>
<path d="M0 0 C6.36130063 2.99436494 12.30673376 6.35895581 18.20117188 10.18847656 C22.82460573 13.18096428 27.54157399 16.01885712 32.25 18.875 C33.17167969 19.43574219 34.09335938 19.99648437 35.04296875 20.57421875 C35.98269531 21.14527344 36.92242187 21.71632813 37.890625 22.3046875 C38.84638428 22.91030518 39.80214355 23.51592285 40.78686523 24.13989258 C43.23088016 25.55475085 45.45715958 26.64180778 48.04321289 27.7097168 C52.2095672 29.55876332 56.11613695 31.36426746 59 35 C61.39252348 41.68739768 60.40802706 49.113496 59.9375 56.0625 C59.86217514 57.99648606 59.79374829 59.93075383 59.73242188 61.86523438 C59.56787116 66.58382607 59.30971745 71.28880048 59 76 C55.01354737 74.77654646 51.57980668 73.34472791 48.0078125 71.19921875 C47.06655518 70.64016846 46.12529785 70.08111816 45.15551758 69.50512695 C44.15544678 68.90531006 43.15537598 68.30549316 42.125 67.6875 C32.45095278 61.95697531 22.66897341 56.48283299 12.75634766 51.17651367 C11.81194824 50.67095947 10.86754883 50.16540527 9.89453125 49.64453125 C9.06800049 49.20471924 8.24146973 48.76490723 7.38989258 48.31176758 C6.60122803 47.87888428 5.81256348 47.44600098 5 47 C4.08412109 46.65501465 3.16824219 46.3100293 2.22460938 45.95458984 C0 44 0 44 -0.42781067 42.03416443 C-0.5821892 39.36895723 -0.56100949 36.7507817 -0.48828125 34.08203125 C-0.48120651 33.10965012 -0.47413177 32.13726898 -0.46684265 31.13542175 C-0.43883408 28.02700138 -0.37608275 24.92037666 -0.3125 21.8125 C-0.28742553 19.70640621 -0.26461088 17.6002842 -0.24414062 15.49414062 C-0.18898599 10.32873429 -0.10266795 5.16467165 0 0 Z " fill="#020202" transform="translate(199,79)"/>
<path d="M0 0 C2.475 0.99 2.475 0.99 5 2 C6.1558963 2.44254623 7.3117926 2.88509247 8.50271606 3.34104919 C12.64682619 5.22613529 16.25030629 7.29309422 19 11 C21.56582372 18.38198873 20.62382959 26.72813372 20.3671875 34.41015625 C20.34105241 36.70651703 20.32113493 39.00295625 20.30715942 41.29942322 C20.25388098 47.3234581 20.11653758 53.34271317 19.96130371 59.36486816 C19.81768848 65.51797822 19.75406358 71.67186639 19.68359375 77.82617188 C19.53375915 89.88654528 19.28767179 101.94212615 19 114 C12.73 114 6.46 114 0 114 C0 76.38 0 38.76 0 0 Z " fill="#030303" transform="translate(264,166)"/>
<path d="M0 0 C0.66 0 1.32 0 2 0 C2 27.39 2 54.78 2 83 C-3.61 83 -9.22 83 -15 83 C-15.31736469 73.78526389 -15.57370012 64.5742006 -15.72537041 55.35521889 C-15.79819902 51.07343926 -15.89678627 46.7956153 -16.05615234 42.51611328 C-16.20923754 38.37897952 -16.29215799 34.24562553 -16.3282814 30.10587692 C-16.35398801 28.5337812 -16.40420227 26.96187413 -16.48022079 25.39140701 C-17.03766544 13.38845092 -17.03766544 13.38845092 -13.57517242 9.32988739 C-9.7452632 5.92807841 -5.48142201 3.44384871 -1 1 C-0.67 0.67 -0.34 0.34 0 0 Z " fill="#000000" transform="translate(124,197)"/>
<path d="M0 0 C0.33 0 0.66 0 1 0 C1 13.53 1 27.06 1 41 C0.34 41 -0.32 41 -1 41 C-1 41.66 -1 42.32 -1 43 C-2.65 42.67 -4.3 42.34 -6 42 C-6 42.99 -6 43.98 -6 45 C-9.43786864 43.68580197 -12.65026822 42.19046518 -15.87890625 40.42578125 C-17.25344971 39.67627197 -17.25344971 39.67627197 -18.65576172 38.91162109 C-19.61498535 38.38391113 -20.57420898 37.85620117 -21.5625 37.3125 C-22.54234863 36.77447754 -23.52219727 36.23645508 -24.53173828 35.68212891 C-27.3572895 34.12641475 -30.17935853 32.56459489 -33 31 C-33.72525879 30.5992627 -34.45051758 30.19852539 -35.19775391 29.78564453 C-36.92884996 28.82500316 -38.65240077 27.85079573 -40.375 26.875 C-41.29023438 26.35679687 -42.20546875 25.83859375 -43.1484375 25.3046875 C-43.75945312 24.87414062 -44.37046875 24.44359375 -45 24 C-45 23.34 -45 22.68 -45 22 C-44.34 22 -43.68 22 -43 22 C-43.33 20.02 -43.66 18.04 -44 16 C-32.93099223 21.28335833 -22.32866231 27.28255636 -11.72729492 33.44189453 C-7.8383788 35.66363499 -3.91519023 37.82489432 0 40 C0 26.8 0 13.6 0 0 Z " fill="#E4E4E4" transform="translate(258,115)"/>
<path d="M0 0 C0.66 0.33 1.32 0.66 2 1 C1.67 1.99 1.34 2.98 1 4 C-0.65 4.33 -2.3 4.66 -4 5 C-3.67 5.99 -3.34 6.98 -3 8 C-2.01 8.33 -1.02 8.66 0 9 C-3.03108607 10.99574175 -6.07649554 12.96848796 -9.125 14.9375 C-9.9809375 15.50146484 -10.836875 16.06542969 -11.71875 16.64648438 C-16.11549567 19.47054794 -19.63067295 21.72713256 -25 22 C-25.33 21.01 -25.66 20.02 -26 19 C-26.66 18.67 -27.32 18.34 -28 18 C-27.47156494 17.66790527 -26.94312988 17.33581055 -26.39868164 16.99365234 C-23.95249959 15.45535093 -21.50749697 13.91518424 -19.0625 12.375 C-18.23169922 11.85292969 -17.40089844 11.33085937 -16.54492188 10.79296875 C-10.97161412 7.27983313 -5.46330461 3.6818461 0 0 Z " fill="#F2F2F2" transform="translate(174,254)"/>
<path d="M0 0 C8 0 8 0 10 1.1875 C11.34528636 3.62583152 11.26871933 5.24562689 11 8 C10.79375 8.66 10.5875 9.32 10.375 10 C9.85274271 12.78537219 10.81451065 14.48955196 12 17 C9.625 16.75 9.625 16.75 7 16 C5.6875 13.9375 5.6875 13.9375 5 12 C4.67 13.65 4.34 15.3 4 17 C2.68 17 1.36 17 0 17 C0 11.39 0 5.78 0 0 Z " fill="#111111" transform="translate(109,290)"/>
<path d="M0 0 C1.32 0 2.64 0 4 0 C5.0067004 2.26807204 6.00551766 4.53907754 7 6.8125 C7.28617188 7.45509766 7.57234375 8.09769531 7.8671875 8.75976562 C9.13711041 11.67756469 10 13.78265714 10 17 C8.68 17 7.36 17 6 17 C5.67 16.34 5.34 15.68 5 15 C1.97065509 14.34227572 1.97065509 14.34227572 -1 14 C-1 14.99 -1 15.98 -1 17 C-2.65 17 -4.3 17 -6 17 C-4.33846988 11.14340094 -2.52958084 5.5409866 0 0 Z " fill="#111111" transform="translate(149,290)"/>
<path d="M0 0 C1.32 0 2.64 0 4 0 C5.00419637 2.4566947 6.00350501 4.91518353 7 7.375 C7.28617188 8.07367188 7.57234375 8.77234375 7.8671875 9.4921875 C10 14.7734375 10 14.7734375 10 17 C8.68 17 7.36 17 6 17 C5.67 16.34 5.34 15.68 5 15 C3.02 15 1.04 15 -1 15 C-1.33 15.66 -1.66 16.32 -2 17 C-3.32 17 -4.64 17 -6 17 C-4.33846988 11.14340094 -2.52958084 5.5409866 0 0 Z " fill="#1F1F1F" transform="translate(243,290)"/>
<path d="M0 0 C3.3 0 6.6 0 10 0 C10 1.32 10 2.64 10 4 C8.02 4 6.04 4 4 4 C4 4.99 4 5.98 4 7 C5.98 7 7.96 7 10 7 C10 8.32 10 9.64 10 11 C8.02 11 6.04 11 4 11 C4 11.66 4 12.32 4 13 C5.98 13 7.96 13 10 13 C10 14.32 10 15.64 10 17 C6.7 17 3.4 17 0 17 C0 11.39 0 5.78 0 0 Z " fill="#292929" transform="translate(273,290)"/>
<path d="M0 0 C3.3 0 6.6 0 10 0 C10 1.32 10 2.64 10 4 C8.02 4 6.04 4 4 4 C4 4.99 4 5.98 4 7 C5.98 7 7.96 7 10 7 C10 8.32 10 9.64 10 11 C8.02 11 6.04 11 4 11 C4 11.66 4 12.32 4 13 C5.98 13 7.96 13 10 13 C10 14.32 10 15.64 10 17 C6.7 17 3.4 17 0 17 C0 11.39 0 5.78 0 0 Z " fill="#1B1B1B" transform="translate(192,290)"/>
<path d="M0 0 C3.3 0 6.6 0 10 0 C10 1.32 10 2.64 10 4 C8.02 4 6.04 4 4 4 C4 4.99 4 5.98 4 7 C5.98 7 7.96 7 10 7 C10 8.32 10 9.64 10 11 C8.02 11 6.04 11 4 11 C4 11.66 4 12.32 4 13 C5.98 13 7.96 13 10 13 C10 14.32 10 15.64 10 17 C6.7 17 3.4 17 0 17 C0 11.39 0 5.78 0 0 Z " fill="#131313" transform="translate(127,290)"/>
<path d="M0 0 C3.63 0 7.26 0 11 0 C11 1.32 11 2.64 11 4 C10.01 4 9.02 4 8 4 C8 8.29 8 12.58 8 17 C6.35 17 4.7 17 3 17 C3 12.71 3 8.42 3 4 C2.01 4 1.02 4 0 4 C0 2.68 0 1.36 0 0 Z " fill="#313131" transform="translate(223,290)"/>
<path d="M0 0 C0.763125 0.20625 1.52625 0.4125 2.3125 0.625 C2.3125 1.615 2.3125 2.605 2.3125 3.625 C0.9925 3.625 -0.3275 3.625 -1.6875 3.625 C1.02854715 6.49920123 1.02854715 6.49920123 4.3125 8.625 C4.67325949 13.07436709 4.67325949 13.07436709 3.125 15.4375 C0.75267475 16.99178206 -0.90791345 16.85037188 -3.6875 16.625 C-4.3475 15.305 -5.0075 13.985 -5.6875 12.625 C-3.7075 12.625 -1.7275 12.625 0.3125 12.625 C-1.62004772 10.6004262 -3.31908688 9.20394208 -5.6875 7.625 C-6.0625 4.625 -6.0625 4.625 -5.6875 1.625 C-2.6875 -0.375 -2.6875 -0.375 0 0 Z " fill="#141414" transform="translate(213.6875,290.375)"/>
<path d="M0 0 C1.65 0 3.3 0 5 0 C5 4.29 5 8.58 5 13 C6.65 13 8.3 13 10 13 C10 14.32 10 15.64 10 17 C6.7 17 3.4 17 0 17 C0 11.39 0 5.78 0 0 Z " fill="#303030" transform="translate(165,290)"/>
<path d="M0 0 C3.63 0 7.26 0 11 0 C11 1.32 11 2.64 11 4 C9.68 4 8.36 4 7 4 C7 8.29 7 12.58 7 17 C5.68 17 4.36 17 3 17 C3 12.71 3 8.42 3 4 C2.01 4 1.02 4 0 4 C0 2.68 0 1.36 0 0 Z " fill="#030303" transform="translate(256,290)"/>
<path d="M0 0 C4.75 0.75 4.75 0.75 7 3 C9.21072977 3.24253813 9.21072977 3.24253813 11.625 3.125 C12.44226563 3.10695313 13.25953125 3.08890625 14.1015625 3.0703125 C14.72804687 3.04710937 15.35453125 3.02390625 16 3 C16 4.65 16 6.3 16 8 C10.66666667 8 5.33333333 8 0 8 C0 5.36 0 2.72 0 0 Z " fill="#838383" transform="translate(126,371)"/>
<path d="M0 0 C0.66 1.32 1.32 2.64 2 4 C2.33 3.67 2.66 3.34 3 3 C4.66605828 2.9549714 6.33378384 2.96125079 8 3 C9.32 3 10.64 3 12 3 C14 3 16 3 18 3 C18 4.65 18 6.3 18 8 C17.34 7.01 16.68 6.02 16 5 C15.01 6.485 15.01 6.485 14 8 C13.67 7.34 13.34 6.68 13 6 C12.34 6.66 11.68 7.32 11 8 C9.66158328 7.68770276 8.32860925 7.35169068 7 7 C4.90178785 7.39938767 4.90178785 7.39938767 3 8 C-0.20485087 8 -3.13119883 7.43440058 -6 6 C-6 5.34 -6 4.68 -6 4 C-4.02 3.67 -2.04 3.34 0 3 C0 2.01 0 1.02 0 0 Z " fill="#707070" transform="translate(206,371)"/>
<path d="M0 0 C0.66 0 1.32 0 2 0 C2.33 1.32 2.66 2.64 3 4 C5.97 4 8.94 4 12 4 C12 5.65 12 7.3 12 9 C8.04 9 4.08 9 0 9 C0 6.03 0 3.06 0 0 Z " fill="#838383" transform="translate(225,370)"/>
<path d="M0 0 C0.66 0 1.32 0 2 0 C1.67 1.32 1.34 2.64 1 4 C5.29 4 9.58 4 14 4 C14 5.32 14 6.64 14 8 C11.11980151 8.96006616 10.0051146 9.31193212 7.1875 8.4375 C4.53603343 7.90720669 2.60108561 8.3497286 0 9 C0 6.03 0 3.06 0 0 Z " fill="#626262" transform="translate(184,370)"/>
<path d="M0 0 C1.32 0 2.64 0 4 0 C6.21538462 6.4 6.21538462 6.4 5.125 9.4375 C4.75375 9.953125 4.3825 10.46875 4 11 C3.01 11 2.02 11 1 11 C0.67 10.01 0.34 9.02 0 8 C-0.99 8.33 -1.98 8.66 -3 9 C-2.01 6.03 -1.02 3.06 0 0 Z " fill="#292929" transform="translate(149,290)"/>
<path d="M0 0 C2.05078125 0.03255208 4.1015625 0.06510417 6.15234375 0.09765625 C6.48234375 1.74765625 6.81234375 3.39765625 7.15234375 5.09765625 C5.50234375 5.09765625 3.85234375 5.09765625 2.15234375 5.09765625 C1.82234375 6.08765625 1.49234375 7.07765625 1.15234375 8.09765625 C-0.16765625 7.76765625 -1.48765625 7.43765625 -2.84765625 7.09765625 C-2.89019981 5.09810879 -2.88846408 3.09723989 -2.84765625 1.09765625 C-1.84765625 0.09765625 -1.84765625 0.09765625 0 0 Z " fill="#838383" transform="translate(145.84765625,373.90234375)"/>
<path d="M0 0 C2.77419379 1.02575232 3.82211495 1.67497546 5.265625 4.3125 C5.59046875 5.199375 5.9153125 6.08625 6.25 7 C6.58515625 7.886875 6.9203125 8.77375 7.265625 9.6875 C8 12 8 12 8 14 C6.68 14 5.36 14 4 14 C1.77343836 9.25645564 0.53851968 5.27749285 0 0 Z " fill="#101010" transform="translate(245,293)"/>
<path d="M0 0 C3.3 1.65 6.6 3.3 10 5 C9.01 5.66 8.02 6.32 7 7 C6.67 7.99 6.34 8.98 6 10 C3.03 9.505 3.03 9.505 0 9 C-0.33 8.01 -0.66 7.02 -1 6 C-0.34 6 0.32 6 1 6 C0.67 4.02 0.34 2.04 0 0 Z " fill="#F0F0F0" transform="translate(214,131)"/>
<path d="M0 0 C0.66 0 1.32 0 2 0 C2 1.32 2 2.64 2 4 C2.763125 4 3.52625 4 4.3125 4 C6.20833333 4 8.10416667 4 10 4 C8.25 9.75 8.25 9.75 6 12 C6 10.68 6 9.36 6 8 C4.02 8.33 2.04 8.66 0 9 C0 6.03 0 3.06 0 0 Z " fill="#8A8A8A" transform="translate(156,370)"/>
<path d="M0 0 C2.97 0 5.94 0 9 0 C9 0.99 9 1.98 9 3 C7.02 3 5.04 3 3 3 C3 3.99 3 4.98 3 6 C4.32 6 5.64 6 7 6 C7 6.66 7 7.32 7 8 C4.625 8.625 4.625 8.625 2 9 C0 7 0 7 -0.125 3.375 C-0.08375 2.26125 -0.0425 1.1475 0 0 Z " fill="#030303" transform="translate(274,291)"/>
<path d="M0 0 C0.66 0.33 1.32 0.66 2 1 C2 1.66 2 2.32 2 3 C4.31 3 6.62 3 9 3 C9 4.32 9 5.64 9 7 C5.7 7 2.4 7 -1 7 C-1.04254356 5.00045254 -1.04080783 2.99958364 -1 1 C-0.67 0.67 -0.34 0.34 0 0 Z " fill="#101010" transform="translate(193,300)"/>
<path d="M0 0 C1.32 0.33 2.64 0.66 4 1 C4 4.96 4 8.92 4 13 C2.68 13 1.36 13 0 13 C0 8.71 0 4.42 0 0 Z " fill="#252525" transform="translate(259,294)"/>
<path d="M0 0 C2.31 0 4.62 0 7 0 C7.33 1.32 7.66 2.64 8 4 C4.62182575 4.84454356 2.32534757 5.10844919 -1 4 C-0.67 2.68 -0.34 1.36 0 0 Z " fill="#7B7B7B" transform="translate(247,374)"/>
<path d="M0 0 C2.97 0 5.94 0 9 0 C9 1.32 9 2.64 9 4 C5.7 4 2.4 4 -1 4 C-0.67 2.68 -0.34 1.36 0 0 Z " fill="#111111" transform="translate(128,303)"/>
<path d="M0 0 C0.33 0 0.66 0 1 0 C1.36075949 4.44936709 1.36075949 4.44936709 -0.1875 6.8125 C-2.55982525 8.36678206 -4.22041345 8.22537188 -7 8 C-7.66 6.68 -8.32 5.36 -9 4 C-6.36 4 -3.72 4 -1 4 C-0.67 2.68 -0.34 1.36 0 0 Z " fill="#191919" transform="translate(217,299)"/>
<path d="M0 0 C1.65 0 3.3 0 5 0 C5 1.65 5 3.3 5 5 C2.03 5 -0.94 5 -4 5 C-4 4.34 -4 3.68 -4 3 C-3.01 3 -2.02 3 -1 3 C-0.67 2.01 -0.34 1.02 0 0 Z " fill="#8F8F8F" transform="translate(137,374)"/>
<path d="M0 0 C4 6 4 6 4 10 C2.68 10 1.36 10 0 10 C-0.33 9.34 -0.66 8.68 -1 8 C-3.52733235 7.34444881 -3.52733235 7.34444881 -6 7 C-6 6.67 -6 6.34 -6 6 C-4.35 5.67 -2.7 5.34 -1 5 C-0.67 3.35 -0.34 1.7 0 0 Z " fill="#191919" transform="translate(155,297)"/>
<path d="M0 0 C0.33 0 0.66 0 1 0 C1 2.97 1 5.94 1 9 C0.01 9 -0.98 9 -2 9 C-2 8.34 -2 7.68 -2 7 C-3.65 7.66 -5.3 8.32 -7 9 C-6.34 6.69 -5.68 4.38 -5 2 C-4.01 2.33 -3.02 2.66 -2 3 C-1.67 3.99 -1.34 4.98 -1 6 C-0.67 4.02 -0.34 2.04 0 0 Z " fill="#626262" transform="translate(176,370)"/>
<path d="M0 0 C0.99 0.33 1.98 0.66 3 1 C3 1.66 3 2.32 3 3 C4.32 3.33 5.64 3.66 7 4 C6.67 4.99 6.34 5.98 6 7 C3.36 6.67 0.72 6.34 -2 6 C-1.34 4.02 -0.68 2.04 0 0 Z " fill="#F8F8F8" transform="translate(187,368)"/>
<path d="M0 0 C0.66 0 1.32 0 2 0 C2 2.31 2 4.62 2 7 C2.66 7.33 3.32 7.66 4 8 C1.69 8 -0.62 8 -3 8 C-2.67 6.35 -2.34 4.7 -2 3 C-1.34 3 -0.68 3 0 3 C0 2.01 0 1.02 0 0 Z " fill="#7F7F7F" transform="translate(241,371)"/>
<path d="M0 0 C0.99 0.33 1.98 0.66 3 1 C6.05270463 1.15811388 6.05270463 1.15811388 9 0 C9 1.32 9 2.64 9 4 C4.56923077 6.09230769 4.56923077 6.09230769 1.6875 5.625 C1.130625 5.41875 0.57375 5.2125 0 5 C0 3.35 0 1.7 0 0 Z " fill="#A8A8A8" transform="translate(202,313)"/>
<path d="M0 0 C0.33 0 0.66 0 1 0 C1.36923077 4.55384615 1.36923077 4.55384615 -0.5 6.8125 C-0.995 7.204375 -1.49 7.59625 -2 8 C-4 6.75 -4 6.75 -6 5 C-6 3.68 -6 2.36 -6 1 C-5.01 1 -4.02 1 -3 1 C-2.67 1.66 -2.34 2.32 -2 3 C-1.34 2.01 -0.68 1.02 0 0 Z " fill="#474747" transform="translate(119,293)"/>
<path d="M0 0 C1.67542976 0.28604898 3.34385343 0.61781233 5 1 C4.67 2.65 4.34 4.3 4 6 C2.68 5.67 1.36 5.34 0 5 C-0.5625 3.0625 -0.5625 3.0625 -1 1 C-0.67 0.67 -0.34 0.34 0 0 Z " fill="#888888" transform="translate(176,313)"/>
<path d="M0 0 C0.66 0 1.32 0 2 0 C1.67 1.32 1.34 2.64 1 4 C2.98 4 4.96 4 7 4 C6.3125 5.9375 6.3125 5.9375 5 8 C2.375 8.75 2.375 8.75 0 9 C0 6.03 0 3.06 0 0 Z " fill="#717171" transform="translate(184,370)"/>
<path d="M0 0 C0 1.65 0 3.3 0 5 C-0.66 4.01 -1.32 3.02 -2 2 C-2.99 3.485 -2.99 3.485 -4 5 C-4.33 4.34 -4.66 3.68 -5 3 C-5.66 3.66 -6.32 4.32 -7 5 C-7.99 5 -8.98 5 -10 5 C-9.6875 3.0625 -9.6875 3.0625 -9 1 C-5.8035914 -0.06546953 -3.34252724 -0.07427838 0 0 Z " fill="#5B5B5B" transform="translate(224,374)"/>
<path d="M0 0 C1.65 0.33 3.3 0.66 5 1 C4.6875 2.9375 4.6875 2.9375 4 5 C3.01 5.33 2.02 5.66 1 6 C0.34 5.67 -0.32 5.34 -1 5 C-0.67 3.35 -0.34 1.7 0 0 Z " fill="#878787" transform="translate(148,313)"/>
<path d="M0 0 C1.32 0 2.64 0 4 0 C4.33 1.65 4.66 3.3 5 5 C3.68 5.33 2.36 5.66 1 6 C-0.0625 4.125 -0.0625 4.125 -1 2 C-0.67 1.34 -0.34 0.68 0 0 Z " fill="#818181" transform="translate(162,313)"/>
<path d="M0 0 C2.475 0.495 2.475 0.495 5 1 C5 2.32 5 3.64 5 5 C3.35 5.33 1.7 5.66 0 6 C0 4.02 0 2.04 0 0 Z " fill="#7F7F7F" transform="translate(189,313)"/>
<path d="M0 0 C0.66 0.33 1.32 0.66 2 1 C1.67 1.66 1.34 2.32 1 3 C1.66 3.33 2.32 3.66 3 4 C2.01 4 1.02 4 0 4 C0 4.66 0 5.32 0 6 C-1.98 6 -3.96 6 -6 6 C-6 5.01 -6 4.02 -6 3 C-4.02 3 -2.04 3 0 3 C0 2.01 0 1.02 0 0 Z " fill="#D7D7D7" transform="translate(137,291)"/>
<path d="M0 0 C0 0.99 0 1.98 0 3 C-1.98 3 -3.96 3 -6 3 C-6.33 3.99 -6.66 4.98 -7 6 C-7.33 4.35 -7.66 2.7 -8 1 C-5.29120665 -0.35439668 -2.99066732 -0.06501451 0 0 Z " fill="#0C0C0C" transform="translate(283,291)"/>
<path d="M0 0 C2.0625 0.4375 2.0625 0.4375 4 1 C3.01 1.495 3.01 1.495 2 2 C2.99 2 3.98 2 5 2 C4.67 3.32 4.34 4.64 4 6 C2.68 5.67 1.36 5.34 0 5 C-0.5625 3.0625 -0.5625 3.0625 -1 1 C-0.67 0.67 -0.34 0.34 0 0 Z " fill="#676767" transform="translate(236,313)"/>
<path d="M0 0 C0.66 0 1.32 0 2 0 C2 1.32 2 2.64 2 4 C2.66 4.33 3.32 4.66 4 5 C3.34 5 2.68 5 2 5 C2 5.99 2 6.98 2 8 C2.66 8.33 3.32 8.66 4 9 C2.68 9 1.36 9 0 9 C0 6.03 0 3.06 0 0 Z " fill="#707070" transform="translate(156,370)"/>
<path d="M0 0 C0 0.99 0 1.98 0 3 C-2.64 3 -5.28 3 -8 3 C-8 2.34 -8 1.68 -8 1 C-5.29120665 -0.35439668 -2.99066732 -0.06501451 0 0 Z " fill="#080808" transform="translate(282,303)"/>
<path d="M0 0 C1.65 0 3.3 0 5 0 C5 1.32 5 2.64 5 4 C3.02 4 1.04 4 -1 4 C-0.67 2.68 -0.34 1.36 0 0 Z " fill="#2A2A2A" transform="translate(132,297)"/>
<path d="M0 0 C3.63 0 7.26 0 11 0 C11 1.32 11 2.64 11 4 C10.01 3.67 9.02 3.34 8 3 C6.6069375 2.63508688 5.21090552 2.28137021 3.8125 1.9375 C2.554375 1.628125 1.29625 1.31875 0 1 C0 0.67 0 0.34 0 0 Z " fill="#2D2D2D" transform="translate(256,290)"/>
<path d="M0 0 C0 0.99 0 1.98 0 3 C-4.75 2.25 -4.75 2.25 -7 0 C-4.3333581 -1.33332095 -2.83319697 -0.67102033 0 0 Z " fill="#1A1A1A" transform="translate(216,291)"/>
<path d="M0 0 C0.99 0 1.98 0 3 0 C3.66 1.65 4.32 3.3 5 5 C3.35 4.67 1.7 4.34 0 4 C-0.33 3.01 -0.66 2.02 -1 1 C-0.67 0.67 -0.34 0.34 0 0 Z " fill="#161616" transform="translate(116,302)"/>
<path d="M0 0 C0.66 0 1.32 0 2 0 C1.34 1.32 0.68 2.64 0 4 C-0.66 3.34 -1.32 2.68 -2 2 C-1.34 1.34 -0.68 0.68 0 0 Z M-4 3 C-3.34 3.33 -2.68 3.66 -2 4 C-3.32 5.32 -4.64 6.64 -6 8 C-6.33 7.01 -6.66 6.02 -7 5 C-6.01 4.34 -5.02 3.68 -4 3 Z " fill="#151515" transform="translate(116,203)"/>
<path d="M0 0 C0.66 0 1.32 0 2 0 C2 1.32 2 2.64 2 4 C2.99 4.33 3.98 4.66 5 5 C4.01 5 3.02 5 2 5 C2 5.99 2 6.98 2 8 C1.34 8 0.68 8 0 8 C0 5.36 0 2.72 0 0 Z " fill="#888888" transform="translate(178,371)"/>
<path d="M0 0 C1.98 0.495 1.98 0.495 4 1 C3.67 2.32 3.34 3.64 3 5 C1.68 4.67 0.36 4.34 -1 4 C-0.67 2.68 -0.34 1.36 0 0 Z " fill="#929292" transform="translate(247,374)"/>
<path d="M0 0 C0 1.32 0 2.64 0 4 C-2.97 3.505 -2.97 3.505 -6 3 C-6 2.34 -6 1.68 -6 1 C-3 0 -3 0 0 0 Z " fill="#9A9A9A" transform="translate(206,374)"/>
<path d="M0 0 C0 2.64 0 5.28 0 8 C-0.33 7.34 -0.66 6.68 -1 6 C-1.66 5.67 -2.32 5.34 -3 5 C-3.625 2.9375 -3.625 2.9375 -4 1 C-1 0 -1 0 0 0 Z " fill="#E6E6E6" transform="translate(184,371)"/>
<path d="M0 0 C1.32 0.66 2.64 1.32 4 2 C3.67 3.32 3.34 4.64 3 6 C2.34 6 1.68 6 1 6 C0.34 4.35 -0.32 2.7 -1 1 C-0.67 0.67 -0.34 0.34 0 0 Z " fill="#0C0C0C" transform="translate(213,297)"/>
<path d="M0 0 C2.475 0.495 2.475 0.495 5 1 C5.33 1.99 5.66 2.98 6 4 C4.35 4 2.7 4 1 4 C0.67 2.68 0.34 1.36 0 0 Z " fill="#E1E1E1" transform="translate(208,299)"/>
<path d="M0 0 C0.66 0.33 1.32 0.66 2 1 C1.67 1.99 1.34 2.98 1 4 C-1.31 4.33 -3.62 4.66 -6 5 C-4.06745228 2.9754262 -2.36841312 1.57894208 0 0 Z " fill="#DDDDDD" transform="translate(174,254)"/>
<path d="M0 0 C0.66 0.66 1.32 1.32 2 2 C3.32 2 4.64 2 6 2 C6 2.66 6 3.32 6 4 C3.625 5.0625 3.625 5.0625 1 6 C0.34 5.67 -0.32 5.34 -1 5 C-0.67 3.35 -0.34 1.7 0 0 Z " fill="#EDEDED" transform="translate(245,376)"/>
<path d="M0 0 C2.2477975 2.05233685 3.0022242 3.00667261 4 6 C2.68 6 1.36 6 0 6 C0 4.02 0 2.04 0 0 Z " fill="#E9E9E9" transform="translate(113,301)"/>
<path d="M0 0 C0.33 0 0.66 0 1 0 C1.33 3.63 1.66 7.26 2 11 C1.01 11 0.02 11 -1 11 C-0.67 7.37 -0.34 3.74 0 0 Z " fill="#0B0B0B" transform="translate(228,296)"/>
</svg>
